<svg xmlns="http://www.w3.org/2000/svg" version="1.1" xmlns:xlink="http://www.w3.org/1999/xlink" xmlns:svgjs="http://svgjs.dev/svgjs" width="1000" height="623" viewBox="0 0 1000 623"><g transform="matrix(1,0,0,1,-0.6060606060606233,0.2522267206477409)"><svg viewBox="0 0 396 247" data-background-color="#ffffff" preserveAspectRatio="xMidYMid meet" height="623" width="1000" xmlns="http://www.w3.org/2000/svg" xmlns:xlink="http://www.w3.org/1999/xlink"><g id="tight-bounds" transform="matrix(1,0,0,1,0.2400000000000091,-0.09999999999999432)"><svg viewBox="0 0 395.52 247.2" height="247.2" width="395.52"><g><svg></svg></g><g><svg viewBox="0 0 395.52 247.2" height="247.2" width="395.52"><mask id="4a554804-9b9f-4412-9d6f-b6a6914f417d"><rect width="640" height="400" fill="white"></rect><g transform="matrix(1,0,0,1,0,60.60977576799527)"><svg viewBox="0 0 395.52 125.98044846400946" height="125.98044846400946" width="395.52"><g><svg viewBox="0 0 395.52 125.98044846400946" height="125.98044846400946" width="395.52"><g><svg viewBox="0 0 395.52 125.98044846400946" height="125.98044846400946" width="395.52"><g><svg viewBox="0 0 395.52 125.98044846400946" height="125.98044846400946" width="395.52"><g id="SvgjsG1096"><svg viewBox="0 0 395.52 125.98044846400946" height="125.98044846400946" width="395.52" id="SvgjsSvg1095"><g><svg viewBox="0 0 395.52 72.97589591957421" height="72.97589591957421" width="395.52"><g transform="matrix(1,0,0,1,0,0)"><svg width="395.52" viewBox="-1 -43.3 254.63 47.8" height="72.97589591957421" data-palette-color="#454545"><path d="M15.65 0Q11.95 0 9.08-1.55 6.2-3.1 4.65-5.63 3.1-8.15 3.1-11.1L3.1-11.1Q3.1-12.65 3.9-13.38 4.7-14.1 6.05-14.1L6.05-14.1Q9.15-14.1 9.25-11.55L9.25-11.55Q9.35-8.65 11.23-7.08 13.1-5.5 15.65-5.5L15.65-5.5Q17.9-5.5 19.55-6.53 21.2-7.55 21.2-9.55L21.2-9.55Q21.2-11.05 20.2-12.05 19.2-13.05 17.75-13.65 16.3-14.25 14-14.9L14-14.9Q11-15.75 8.88-16.65 6.75-17.55 4.88-19.63 3-21.7 3-25L3-25Q3-28 4.6-30.38 6.2-32.75 8.95-34.08 11.7-35.4 14.95-35.4L14.95-35.4Q18.35-35.4 21.13-33.98 23.9-32.55 25.48-30.2 27.05-27.85 27.05-25.2L27.05-25.2Q27.05-23.65 26.28-23 25.5-22.35 24-22.35L24-22.35Q22.6-22.35 21.95-23 21.3-23.65 21-25.05L21-25.05Q20.7-27.05 19.13-28.5 17.55-29.95 14.95-29.95L14.95-29.95Q12.45-29.95 10.78-28.55 9.1-27.15 9.1-24.9L9.1-24.9Q9.1-23.55 9.95-22.75 10.8-21.95 12.05-21.48 13.3-21 16.6-20L16.6-20Q19.25-19.2 21.5-18.13 23.75-17.05 25.53-14.95 27.3-12.85 27.3-9.65L27.3-9.65Q27.3-6.8 25.75-4.6 24.2-2.4 21.53-1.2 18.85 0 15.65 0L15.65 0ZM55.8-19Q57-14.2 57-2.45L57-2.45Q57-1.4 56.15-0.78 55.3-0.15 54-0.15L54-0.15Q52.65-0.15 51.77-0.83 50.9-1.5 50.9-2.75L50.9-2.75Q50.9-8.9 50.72-12.65 50.55-16.4 50.05-18.35L50.05-18.35Q49.3-21.15 46.75-21.15L46.75-21.15Q43.6-21.15 42.05-18.73 40.5-16.3 40.5-12.7L40.5-12.7 40.5-2.3Q40.5-1.4 39.6-0.78 38.7-0.15 37.45-0.15L37.45-0.15Q36.2-0.15 35.32-0.78 34.45-1.4 34.45-2.35L34.45-2.35Q34.45-12.2 34.7-21.6L34.7-21.6Q34.9-27.55 35.3-34.8L35.3-34.8 35.4-36.75Q35.5-37.9 36.3-38.6 37.1-39.3 38.45-39.3L38.45-39.3Q39.75-39.3 40.52-38.68 41.3-38.05 41.25-37L41.25-37 40.55-24.15 40.5-23.1Q41.7-24.4 43.52-25.2 45.35-26 47.75-26L47.75-26Q51.1-26 53.02-24.3 54.95-22.6 55.8-19L55.8-19ZM85.75-4.8Q86.59-4.65 87.07-4.17 87.55-3.7 87.55-2.5L87.55-2.5Q87.55-1.45 87-0.75 86.45-0.05 85.55-0.05L85.55-0.05Q83.4-0.05 82.3-0.6 81.2-1.15 80.34-2.65L80.34-2.65Q78.25 0.5 72.75 0.5L72.75 0.5Q67 0.5 64.15-2.88 61.3-6.25 61.3-11.75L61.3-11.75Q61.3-15.4 62.77-18.35 64.25-21.3 67-23 69.75-24.7 73.34-24.7L73.34-24.7Q75.4-24.7 77.05-23.88 78.7-23.05 79.55-21.7L79.55-21.7 79.7-22.75Q79.75-23.45 80.34-23.95 80.95-24.45 82.25-24.45L82.25-24.45Q83.75-24.45 84.42-23.75 85.09-23.05 84.95-22L84.95-22Q84.65-20.4 84.3-16.35L84.3-16.35Q84.15-14.35 84.15-11.2L84.15-11.2 84.15-8.85Q84.15-6.75 84.4-5.83 84.65-4.9 85.75-4.8L85.75-4.8ZM78.25-8.9Q78.3-11.05 78.3-15.15L78.3-15.15Q78.3-17.45 76.82-18.7 75.34-19.95 73.45-19.95L73.45-19.95Q70.7-19.95 69.05-17.55 67.4-15.15 67.4-11.8L67.4-11.8Q67.4-8.55 68.84-6.4 70.3-4.25 73.09-4.25L73.09-4.25Q75.4-4.25 76.8-5.45 78.2-6.65 78.25-8.9L78.25-8.9ZM106.19-25.85Q109.29-25.85 111.34-23.8 113.39-21.75 113.39-18.55L113.39-18.55Q113.39-15.45 111.42-13.75 109.44-12.05 106.34-12.05L106.34-12.05Q104.84-12.05 104.24-12.53 103.64-13 103.64-14.05L103.64-14.05Q103.64-15.05 104.07-15.48 104.49-15.9 105.29-16L105.29-16Q108.34-16.35 108.34-18.7L108.34-18.7Q108.34-19.8 107.77-20.5 107.19-21.2 106.09-21.2L106.09-21.2Q104.54-21.2 103.27-19.63 101.99-18.05 101.22-15.85 100.44-13.65 100.24-11.9L100.24-11.9Q99.94-8.85 99.94-3.8L99.94-3.8Q99.94-1.3 99.29-0.43 98.64 0.45 96.99 0.45L96.99 0.45Q95.39 0.45 94.64-0.2 93.89-0.85 93.84-2.25L93.84-2.25 93.84-10.85Q93.84-13.6 93.72-15.75 93.59-17.9 93.29-20.95L93.29-20.95 92.99-24.05Q92.89-25.15 93.69-25.83 94.49-26.5 95.89-26.5L95.89-26.5Q98.24-26.5 98.44-24.3L98.44-24.3Q98.54-22.55 98.64-20L98.64-20Q99.59-22.6 101.54-24.23 103.49-25.85 106.19-25.85L106.19-25.85ZM131.54 0.4Q127.14 0.4 124.06-1.33 120.99-3.05 119.44-6.03 117.89-9 117.89-12.7L117.89-12.7Q117.89-16.4 119.62-19.38 121.34-22.35 124.37-24.03 127.39-25.7 131.19-25.7L131.19-25.7Q134.64-25.7 137.39-24.35 140.14-23 141.74-20.5 143.34-18 143.34-14.7L143.34-14.7Q143.34-12.75 142.72-11.93 142.09-11.1 140.39-11.1L140.39-11.1 123.24-10.95Q123.24-9.55 124.19-8.05 125.14-6.55 126.99-5.53 128.84-4.5 131.34-4.5L131.34-4.5Q133.04-4.5 134.22-4.93 135.39-5.35 136.14-5.95 136.89-6.55 137.89-7.6L137.89-7.6Q138.64-8.35 139.54-8.35L139.54-8.35Q140.49-8.35 141.37-7.6 142.24-6.85 142.24-5.9L142.24-5.9Q142.24-5.2 141.69-4.35L141.69-4.35Q140.49-2.55 138.06-1.07 135.64 0.4 131.54 0.4L131.54 0.4ZM123.24-14.95L137.69-15.1Q138.09-15.1 138.22-15.25 138.34-15.4 138.34-15.8L138.34-15.8Q138.34-18.1 136.29-19.6 134.24-21.1 131.19-21.1L131.19-21.1Q128.84-21.1 127.02-20.08 125.19-19.05 124.22-17.57 123.24-16.1 123.24-14.95L123.24-14.95ZM158.29-0.05Q156.39-0.05 154.66-2.18 152.94-4.3 151.59-8.45L151.59-8.45Q150.54-11.9 149.79-16.23 149.04-20.55 149.04-22.85L149.04-22.85Q149.04-24.65 149.76-25.35 150.49-26.05 151.94-26.05L151.94-26.05Q153.29-26.05 154.06-25.53 154.84-25 154.99-23.75L154.99-23.75Q155.29-20.3 155.59-18.05 155.89-15.8 156.64-12.4L156.64-12.4Q157.24-9.75 157.66-8.38 158.09-7 158.49-7L158.49-7Q158.89-7 159.64-9.63 160.39-12.25 161.59-17.3L161.59-17.3 161.94-18.7Q162.29-20.2 163.01-20.98 163.74-21.75 164.99-21.75L164.99-21.75Q166.19-21.75 166.94-21.03 167.69-20.3 168.19-18.7L168.19-18.7 169.24-15.3Q170.49-11.1 171.24-9.08 171.99-7.05 172.49-7.05L172.49-7.05Q172.84-7.05 173.16-8.38 173.49-9.7 174.04-12.85L174.04-12.85Q174.69-16.8 174.89-18.82 175.09-20.85 175.24-23.65L175.24-23.65Q175.39-26.05 178.29-26.05L178.29-26.05Q179.89-26.05 180.59-25.2 181.29-24.35 181.29-22.45L181.29-22.45Q181.29-20.25 180.69-16.2 180.09-12.15 179.19-8.75L179.19-8.75Q176.94-0.05 172.89-0.05L172.89-0.05Q170.29-0.05 168.31-3.68 166.34-7.3 165.09-14.05L165.09-14.05Q163.19-0.05 158.29-0.05L158.29-0.05ZM192.84-26.85Q191.04-26.85 189.89-27.98 188.74-29.1 188.74-30.85L188.74-30.85Q188.74-32.6 189.89-33.73 191.04-34.85 192.89-34.85L192.89-34.85Q194.64-34.85 195.79-33.73 196.94-32.6 196.94-30.9L196.94-30.9Q196.94-29.15 195.79-28 194.64-26.85 192.84-26.85L192.84-26.85ZM192.09-0.3Q190.74-0.3 189.86-0.98 188.99-1.65 189.04-2.8L189.04-2.8 189.44-22.2Q189.49-23.4 190.34-24.05 191.19-24.7 192.54-24.7L192.54-24.7Q193.94-24.7 194.81-24.03 195.69-23.35 195.64-22.1L195.64-22.1 195.24-2.8Q195.19-1.65 194.31-0.98 193.44-0.3 192.09-0.3L192.09-0.3ZM218.38-9.35Q219.78-9.35 220.41-8.75 221.03-8.15 221.03-6.85L221.03-6.85Q221.03-3.8 219.06-1.88 217.08 0.05 214.03 0.05L214.03 0.05Q209.88 0.05 208.01-3.38 206.13-6.8 206.13-14.25L206.13-14.25Q206.13-15.8 206.23-18.5L206.23-18.5 204.43-18.6Q202.03-18.7 202.03-20.95L202.03-20.95Q202.03-22.2 202.68-22.78 203.33-23.35 204.83-23.3L204.83-23.3 206.63-23.2Q206.98-26.75 207.78-31.35L207.78-31.35Q208.18-33.5 210.73-33.5L210.73-33.5Q212.28-33.5 213.11-32.7 213.93-31.9 213.73-30.8L213.73-30.8Q212.93-25.4 212.68-22.9L212.68-22.9 215.73-22.85Q217.93-22.8 217.93-20.6L217.93-20.6Q217.93-19.45 217.33-18.9 216.73-18.35 215.28-18.35L215.28-18.35 212.28-18.35Q212.18-15.75 212.18-14.25L212.18-14.25Q212.18-8.95 212.68-6.85 213.18-4.75 214.43-4.75L214.43-4.75Q215.23-4.75 215.58-5.33 215.93-5.9 215.98-7.25L215.98-7.25Q216.03-8.35 216.58-8.85 217.13-9.35 218.38-9.35L218.38-9.35ZM248.43-19Q249.63-14.2 249.63-2.45L249.63-2.45Q249.63-1.4 248.78-0.78 247.93-0.15 246.63-0.15L246.63-0.15Q245.28-0.15 244.41-0.83 243.53-1.5 243.53-2.75L243.53-2.75Q243.53-8.9 243.36-12.65 243.18-16.4 242.68-18.35L242.68-18.35Q241.93-21.15 239.38-21.15L239.38-21.15Q236.23-21.15 234.68-18.73 233.13-16.3 233.13-12.7L233.13-12.7 233.13-2.3Q233.13-1.4 232.23-0.78 231.33-0.15 230.08-0.15L230.08-0.15Q228.83-0.15 227.96-0.78 227.08-1.4 227.08-2.35L227.08-2.35Q227.08-12.2 227.33-21.6L227.33-21.6Q227.53-27.55 227.93-34.8L227.93-34.8 228.03-36.75Q228.13-37.9 228.93-38.6 229.73-39.3 231.08-39.3L231.08-39.3Q232.38-39.3 233.16-38.68 233.93-38.05 233.88-37L233.88-37 233.18-24.15 233.13-23.1Q234.33-24.4 236.16-25.2 237.98-26 240.38-26L240.38-26Q243.73-26 245.66-24.3 247.58-22.6 248.43-19L248.43-19Z" opacity="1" transform="matrix(1,0,0,1,0,0)" fill="black" class="wordmark-text-0" id="SvgjsPath1094" stroke-width="7" stroke="black" stroke-linejoin="round"></path></svg></g></svg></g><g transform="matrix(1,0,0,1,3.5,87.62693721622708)"><svg viewBox="0 0 388.52 38.35351124778237" height="38.35351124778237" width="388.52"><g transform="matrix(1,0,0,1,0,0)"><svg width="388.52" viewBox="-1.9500000000000002 -44.9 493.42 49.4" height="38.35351124778237" data-palette-color="#454545"><path d="M12.15 0.5L12.15 0.5Q8.85 0.5 6.68-0.88 4.5-2.25 3.4-4.73 2.3-7.2 2.05-10.5L2.05-10.5 5.4-11.5Q5.65-9 6.3-6.98 6.95-4.95 8.35-3.78 9.75-2.6 12.2-2.6L12.2-2.6Q14.9-2.6 16.4-4 17.9-5.4 17.9-8.45L17.9-8.45Q17.9-11.15 16.57-13.1 15.25-15.05 12.95-17.2L12.95-17.2 5.8-24.05Q3.9-25.9 3-27.88 2.1-29.85 2.1-32.2L2.1-32.2Q2.1-36.4 4.6-38.65 7.1-40.9 11.25-40.9L11.25-40.9Q13.4-40.9 15.13-40.35 16.85-39.8 18.07-38.58 19.3-37.35 20-35.4 20.7-33.45 20.95-30.65L20.95-30.65 17.7-29.8Q17.5-32.35 16.88-34.18 16.25-36 14.93-36.95 13.6-37.9 11.25-37.9L11.25-37.9Q8.75-37.9 7.15-36.6 5.55-35.3 5.55-32.55L5.55-32.55Q5.55-30.9 6.18-29.55 6.8-28.2 8.4-26.65L8.4-26.65 15.55-19.9Q17.95-17.65 19.7-14.9 21.45-12.15 21.45-8.7L21.45-8.7Q21.45-5.65 20.28-3.6 19.1-1.55 17-0.53 14.9 0.5 12.15 0.5ZM44.72 0L41.07 0 41.07-40.5 44.72-40.5 44.72-25.85Q46.17-27.4 47.92-28.38 49.67-29.35 51.77-29.35L51.77-29.35Q53.22-29.35 54.19-28.63 55.17-27.9 55.69-26.53 56.22-25.15 56.22-23.2L56.22-23.2 56.22 0 52.52 0 52.52-22.4Q52.52-24.65 51.84-25.58 51.17-26.5 49.77-26.5L49.77-26.5Q48.52-26.5 47.19-25.73 45.87-24.95 44.72-23.75L44.72-23.75 44.72 0ZM81.84 0.45L81.84 0.45Q80.09 0.45 78.79-0.43 77.49-1.3 76.76-2.78 76.04-4.25 76.04-6L76.04-6Q76.04-8.2 76.66-9.75 77.29-11.3 78.66-12.53 80.04-13.75 82.26-14.93 84.49-16.1 87.69-17.55L87.69-17.55 87.69-19.6Q87.69-22.25 87.36-23.78 87.04-25.3 86.26-25.95 85.49-26.6 84.09-26.6L84.09-26.6Q82.94-26.6 82.04-26.15 81.14-25.7 80.59-24.63 80.04-23.55 80.04-21.65L80.04-21.65 80.04-20.65 76.44-20.7Q76.49-25.1 78.31-27.23 80.14-29.35 84.29-29.35L84.29-29.35Q88.19-29.35 89.76-27.03 91.34-24.7 91.34-19.8L91.34-19.8 91.34-5.75Q91.34-5 91.39-3.83 91.44-2.65 91.49-1.6 91.54-0.55 91.59 0L91.59 0 88.34 0Q88.24-0.95 88.04-2.13 87.84-3.3 87.79-4L87.79-4Q87.19-2.25 85.66-0.9 84.14 0.45 81.84 0.45ZM82.99-2.65L82.99-2.65Q84.09-2.65 84.99-3.2 85.89-3.75 86.59-4.53 87.29-5.3 87.69-6.1L87.69-6.1 87.69-15.1Q85.54-14 84.01-13.1 82.49-12.2 81.54-11.35 80.59-10.5 80.14-9.43 79.69-8.35 79.69-6.9L79.69-6.9Q79.69-4.6 80.69-3.63 81.69-2.65 82.99-2.65ZM115.86 0L112.16 0 112.16-28.9 115.86-28.9 115.86-24.95Q117.26-27.25 119.06-28.23 120.86-29.2 122.51-29.2L122.51-29.2Q122.66-29.2 122.81-29.2 122.96-29.2 123.16-29.15L123.16-29.15 123.16-25.25Q122.81-25.4 122.31-25.48 121.81-25.55 121.36-25.55L121.36-25.55Q119.66-25.55 118.28-24.75 116.91-23.95 115.86-22.2L115.86-22.2 115.86 0ZM149.13 0.45L149.13 0.45Q146.43 0.45 144.7-0.63 142.98-1.7 142.15-4.2 141.33-6.7 141.33-10.85L141.33-10.85 141.33-18.15Q141.33-22.45 142.18-24.88 143.03-27.3 144.78-28.33 146.53-29.35 149.18-29.35L149.18-29.35Q152.23-29.35 153.83-28.05 155.43-26.75 156.05-24.13 156.68-21.5 156.68-17.4L156.68-17.4 156.68-14.8 144.98-14.8 144.98-9.75Q144.98-6.95 145.4-5.33 145.83-3.7 146.75-3 147.68-2.3 149.13-2.3L149.13-2.3Q150.23-2.3 151.13-2.73 152.03-3.15 152.55-4.38 153.08-5.6 153.08-7.85L153.08-7.85 153.08-9.85 156.63-9.85 156.63-8.25Q156.63-4.3 155-1.93 153.38 0.45 149.13 0.45ZM144.98-18.85L144.98-16.9 153.08-16.9 153.08-19.3Q153.08-21.6 152.83-23.23 152.58-24.85 151.75-25.73 150.93-26.6 149.13-26.6L149.13-26.6Q147.63-26.6 146.7-25.95 145.78-25.3 145.38-23.63 144.98-21.95 144.98-18.85L144.98-18.85ZM211.17 0L208.07 0 201.22-40.5 204.47-40.5 209.82-7.6 215.92-39.9 219.07-39.9 225.32-7.55 230.27-40.5 233.47-40.5 226.92 0 223.97 0 217.52-33.4 211.17 0ZM257.29 0L253.64 0 253.64-28.9 257.29-28.9 257.29 0ZM257.29-32.9L253.64-32.9 253.64-37.85 257.29-37.85 257.29-32.9ZM285.51 0.35L285.51 0.35Q283.41 0.35 282.28-0.48 281.16-1.3 280.73-2.73 280.31-4.15 280.31-6L280.31-6 280.31-26.5 276.76-26.5 276.76-28.9 280.31-28.9 280.31-37.85 283.96-37.85 283.96-28.9 288.76-28.9 288.76-26.5 283.96-26.5 283.96-6.35Q283.96-4.25 284.43-3.38 284.91-2.5 286.51-2.5L286.51-2.5Q286.96-2.5 287.53-2.58 288.11-2.65 288.61-2.75L288.61-2.75 288.61 0.05Q287.86 0.2 287.06 0.28 286.26 0.35 285.51 0.35ZM311.57 0L307.92 0 307.92-40.5 311.57-40.5 311.57-25.85Q313.02-27.4 314.77-28.38 316.52-29.35 318.62-29.35L318.62-29.35Q320.07-29.35 321.05-28.63 322.02-27.9 322.55-26.53 323.07-25.15 323.07-23.2L323.07-23.2 323.07 0 319.37 0 319.37-22.4Q319.37-24.65 318.7-25.58 318.02-26.5 316.62-26.5L316.62-26.5Q315.37-26.5 314.05-25.73 312.72-24.95 311.57-23.75L311.57-23.75 311.57 0ZM384.56 0L369.81 0 369.81-40.5 384.46-40.5 384.46-37.55 373.66-37.55 373.66-22.35 382.46-22.35 382.46-19.55 373.66-19.55 373.66-2.85 384.56-2.85 384.56 0ZM409.23 0.45L409.23 0.45Q407.48 0.45 406.18-0.43 404.88-1.3 404.16-2.78 403.43-4.25 403.43-6L403.43-6Q403.43-8.2 404.06-9.75 404.68-11.3 406.06-12.53 407.43-13.75 409.66-14.93 411.88-16.1 415.08-17.55L415.08-17.55 415.08-19.6Q415.08-22.25 414.76-23.78 414.43-25.3 413.66-25.95 412.88-26.6 411.48-26.6L411.48-26.6Q410.33-26.6 409.43-26.15 408.53-25.7 407.98-24.63 407.43-23.55 407.43-21.65L407.43-21.65 407.43-20.65 403.83-20.7Q403.88-25.1 405.71-27.23 407.53-29.35 411.68-29.35L411.68-29.35Q415.58-29.35 417.16-27.03 418.73-24.7 418.73-19.8L418.73-19.8 418.73-5.75Q418.73-5 418.78-3.83 418.83-2.65 418.88-1.6 418.93-0.55 418.98 0L418.98 0 415.73 0Q415.63-0.95 415.43-2.13 415.23-3.3 415.18-4L415.18-4Q414.58-2.25 413.06-0.9 411.53 0.45 409.23 0.45ZM410.38-2.65L410.38-2.65Q411.48-2.65 412.38-3.2 413.28-3.75 413.98-4.53 414.68-5.3 415.08-6.1L415.08-6.1 415.08-15.1Q412.93-14 411.41-13.1 409.88-12.2 408.93-11.35 407.98-10.5 407.53-9.43 407.08-8.35 407.08-6.9L407.08-6.9Q407.08-4.6 408.08-3.63 409.08-2.65 410.38-2.65ZM445.9 0.45L445.9 0.45Q442.45 0.45 440.4-1.78 438.35-4 438.05-7.75L438.05-7.75 441.1-8.7Q441.4-5.35 442.65-3.83 443.9-2.3 446.15-2.3L446.15-2.3Q448.05-2.3 449.08-3.38 450.1-4.45 450.1-6.4L450.1-6.4Q450.1-7.8 449.25-9.22 448.4-10.65 446.6-12.2L446.6-12.2 442.65-15.6Q440.7-17.25 439.7-18.9 438.7-20.55 438.7-22.85L438.7-22.85Q438.7-24.95 439.58-26.38 440.45-27.8 442-28.58 443.55-29.35 445.6-29.35L445.6-29.35Q448.9-29.35 450.6-27.23 452.3-25.1 452.45-21.75L452.45-21.75 449.85-20.9Q449.75-22.85 449.25-24.13 448.75-25.4 447.88-26 447-26.6 445.75-26.6L445.75-26.6Q444.1-26.6 443.08-25.68 442.05-24.75 442.05-23.1L442.05-23.1Q442.05-21.8 442.55-20.8 443.05-19.8 444.4-18.55L444.4-18.55 448.5-14.9Q449.7-13.85 450.8-12.65 451.9-11.45 452.6-9.98 453.3-8.5 453.3-6.5L453.3-6.5Q453.3-4.25 452.38-2.73 451.45-1.2 449.8-0.38 448.15 0.45 445.9 0.45ZM479.92 0.45L479.92 0.45Q477.22 0.45 475.5-0.63 473.77-1.7 472.95-4.2 472.12-6.7 472.12-10.85L472.12-10.85 472.12-18.15Q472.12-22.45 472.97-24.88 473.82-27.3 475.57-28.33 477.32-29.35 479.97-29.35L479.97-29.35Q483.02-29.35 484.62-28.05 486.22-26.75 486.85-24.13 487.47-21.5 487.47-17.4L487.47-17.4 487.47-14.8 475.77-14.8 475.77-9.75Q475.77-6.95 476.2-5.33 476.62-3.7 477.55-3 478.47-2.3 479.92-2.3L479.92-2.3Q481.02-2.3 481.92-2.73 482.82-3.15 483.35-4.38 483.87-5.6 483.87-7.85L483.87-7.85 483.87-9.85 487.42-9.85 487.42-8.25Q487.42-4.3 485.8-1.93 484.17 0.45 479.92 0.45ZM475.77-18.85L475.77-16.9 483.87-16.9 483.87-19.3Q483.87-21.6 483.62-23.23 483.37-24.85 482.55-25.73 481.72-26.6 479.92-26.6L479.92-26.6Q478.42-26.6 477.5-25.95 476.57-25.3 476.17-23.63 475.77-21.95 475.77-18.85L475.77-18.85Z" opacity="1" transform="matrix(1,0,0,1,0,0)" fill="black" class="slogan-text-1" id="SvgjsPath1093" stroke-width="7" stroke="black" stroke-linejoin="round"></path></svg></g></svg></g></svg></g></svg></g></svg></g></svg></g></svg></g></mask><g transform="matrix(1,0,0,1,0,60.60977576799527)"><svg viewBox="0 0 395.52 125.98044846400946" height="125.98044846400946" width="395.52"><g><svg viewBox="0 0 395.52 125.98044846400946" height="125.98044846400946" width="395.52"><g><svg viewBox="0 0 395.52 125.98044846400946" height="125.98044846400946" width="395.52"><g><svg viewBox="0 0 395.52 125.98044846400946" height="125.98044846400946" width="395.52"><g id="textblocktransform"><svg viewBox="0 0 395.52 125.98044846400946" height="125.98044846400946" width="395.52" id="textblock"><g><svg viewBox="0 0 395.52 72.97589591957421" height="72.97589591957421" width="395.52"><g transform="matrix(1,0,0,1,0,0)"><svg width="395.52" viewBox="-1 -43.3 254.63 47.8" height="72.97589591957421" data-palette-color="#454545"><path d="M15.65 0Q11.95 0 9.08-1.55 6.2-3.1 4.65-5.63 3.1-8.15 3.1-11.1L3.1-11.1Q3.1-12.65 3.9-13.38 4.7-14.1 6.05-14.1L6.05-14.1Q9.15-14.1 9.25-11.55L9.25-11.55Q9.35-8.65 11.23-7.08 13.1-5.5 15.65-5.5L15.65-5.5Q17.9-5.5 19.55-6.53 21.2-7.55 21.2-9.55L21.2-9.55Q21.2-11.05 20.2-12.05 19.2-13.05 17.75-13.65 16.3-14.25 14-14.9L14-14.9Q11-15.75 8.88-16.65 6.75-17.55 4.88-19.63 3-21.7 3-25L3-25Q3-28 4.6-30.38 6.2-32.75 8.95-34.08 11.7-35.4 14.95-35.4L14.95-35.4Q18.35-35.4 21.13-33.98 23.9-32.55 25.48-30.2 27.05-27.85 27.05-25.2L27.05-25.2Q27.05-23.65 26.28-23 25.5-22.35 24-22.35L24-22.35Q22.6-22.35 21.95-23 21.3-23.65 21-25.05L21-25.05Q20.7-27.05 19.13-28.5 17.55-29.95 14.95-29.95L14.95-29.95Q12.45-29.95 10.78-28.55 9.1-27.15 9.1-24.9L9.1-24.9Q9.1-23.55 9.95-22.75 10.8-21.95 12.05-21.48 13.3-21 16.6-20L16.6-20Q19.25-19.2 21.5-18.13 23.75-17.05 25.53-14.95 27.3-12.85 27.3-9.65L27.3-9.65Q27.3-6.8 25.75-4.6 24.2-2.4 21.53-1.2 18.85 0 15.65 0L15.65 0ZM55.8-19Q57-14.2 57-2.45L57-2.45Q57-1.4 56.15-0.78 55.3-0.15 54-0.15L54-0.15Q52.65-0.15 51.77-0.83 50.9-1.5 50.9-2.75L50.9-2.75Q50.9-8.9 50.72-12.65 50.55-16.4 50.05-18.35L50.05-18.35Q49.3-21.15 46.75-21.15L46.75-21.15Q43.6-21.15 42.05-18.73 40.5-16.3 40.5-12.7L40.5-12.7 40.5-2.3Q40.5-1.4 39.6-0.78 38.7-0.15 37.45-0.15L37.45-0.15Q36.2-0.15 35.32-0.78 34.45-1.4 34.45-2.35L34.45-2.35Q34.45-12.2 34.7-21.6L34.7-21.6Q34.9-27.55 35.3-34.8L35.3-34.8 35.4-36.75Q35.5-37.9 36.3-38.6 37.1-39.3 38.45-39.3L38.45-39.3Q39.75-39.3 40.52-38.68 41.3-38.05 41.25-37L41.25-37 40.55-24.15 40.5-23.1Q41.7-24.4 43.52-25.2 45.35-26 47.75-26L47.75-26Q51.1-26 53.02-24.3 54.95-22.6 55.8-19L55.8-19ZM85.75-4.8Q86.59-4.65 87.07-4.17 87.55-3.7 87.55-2.5L87.55-2.5Q87.55-1.45 87-0.75 86.45-0.05 85.55-0.05L85.55-0.05Q83.4-0.05 82.3-0.6 81.2-1.15 80.34-2.65L80.34-2.65Q78.25 0.5 72.75 0.5L72.75 0.5Q67 0.5 64.15-2.88 61.3-6.25 61.3-11.75L61.3-11.75Q61.3-15.4 62.77-18.35 64.25-21.3 67-23 69.75-24.7 73.34-24.7L73.34-24.7Q75.4-24.7 77.05-23.88 78.7-23.05 79.55-21.7L79.55-21.7 79.7-22.75Q79.75-23.45 80.34-23.95 80.95-24.45 82.25-24.45L82.25-24.45Q83.75-24.45 84.42-23.75 85.09-23.05 84.95-22L84.95-22Q84.65-20.4 84.3-16.35L84.3-16.35Q84.15-14.35 84.15-11.2L84.15-11.2 84.15-8.85Q84.15-6.75 84.4-5.83 84.65-4.9 85.75-4.8L85.75-4.8ZM78.25-8.9Q78.3-11.05 78.3-15.15L78.3-15.15Q78.3-17.45 76.82-18.7 75.34-19.95 73.45-19.95L73.45-19.95Q70.7-19.95 69.05-17.55 67.4-15.15 67.4-11.8L67.4-11.8Q67.4-8.55 68.84-6.4 70.3-4.25 73.09-4.25L73.09-4.25Q75.4-4.25 76.8-5.45 78.2-6.65 78.25-8.9L78.25-8.9ZM106.19-25.85Q109.29-25.85 111.34-23.8 113.39-21.75 113.39-18.55L113.39-18.55Q113.39-15.45 111.42-13.75 109.44-12.05 106.34-12.05L106.34-12.05Q104.84-12.05 104.24-12.53 103.64-13 103.64-14.05L103.64-14.05Q103.64-15.05 104.07-15.48 104.49-15.9 105.29-16L105.29-16Q108.34-16.35 108.34-18.7L108.34-18.7Q108.34-19.8 107.77-20.5 107.19-21.2 106.09-21.2L106.09-21.2Q104.54-21.2 103.27-19.63 101.99-18.05 101.22-15.85 100.44-13.65 100.24-11.9L100.24-11.9Q99.94-8.85 99.94-3.8L99.94-3.8Q99.94-1.3 99.29-0.43 98.64 0.45 96.99 0.45L96.99 0.45Q95.39 0.45 94.64-0.2 93.89-0.85 93.84-2.25L93.84-2.25 93.84-10.85Q93.84-13.6 93.72-15.75 93.59-17.9 93.29-20.95L93.29-20.95 92.99-24.05Q92.89-25.15 93.69-25.83 94.49-26.5 95.89-26.5L95.89-26.5Q98.24-26.5 98.44-24.3L98.44-24.3Q98.54-22.55 98.64-20L98.64-20Q99.59-22.6 101.54-24.23 103.49-25.85 106.19-25.85L106.19-25.85ZM131.54 0.4Q127.14 0.4 124.06-1.33 120.99-3.05 119.44-6.03 117.89-9 117.89-12.7L117.89-12.7Q117.89-16.4 119.62-19.38 121.34-22.35 124.37-24.03 127.39-25.7 131.19-25.7L131.19-25.7Q134.64-25.7 137.39-24.35 140.14-23 141.74-20.5 143.34-18 143.34-14.7L143.34-14.7Q143.34-12.75 142.72-11.93 142.09-11.1 140.39-11.1L140.39-11.1 123.24-10.95Q123.24-9.55 124.19-8.05 125.14-6.55 126.99-5.53 128.84-4.5 131.34-4.5L131.34-4.5Q133.04-4.5 134.22-4.93 135.39-5.35 136.14-5.95 136.89-6.55 137.89-7.6L137.89-7.6Q138.64-8.35 139.54-8.35L139.54-8.35Q140.49-8.35 141.37-7.6 142.24-6.85 142.24-5.9L142.24-5.9Q142.24-5.2 141.69-4.35L141.69-4.35Q140.49-2.55 138.06-1.07 135.64 0.4 131.54 0.4L131.54 0.4ZM123.24-14.95L137.69-15.1Q138.09-15.1 138.22-15.25 138.34-15.4 138.34-15.8L138.34-15.8Q138.34-18.1 136.29-19.6 134.24-21.1 131.19-21.1L131.19-21.1Q128.84-21.1 127.02-20.08 125.19-19.05 124.22-17.57 123.24-16.1 123.24-14.95L123.24-14.95ZM158.29-0.05Q156.39-0.05 154.66-2.18 152.94-4.3 151.59-8.45L151.59-8.45Q150.54-11.9 149.79-16.23 149.04-20.55 149.04-22.85L149.04-22.85Q149.04-24.65 149.76-25.35 150.49-26.05 151.94-26.05L151.94-26.05Q153.29-26.05 154.06-25.53 154.84-25 154.99-23.75L154.99-23.75Q155.29-20.3 155.59-18.05 155.89-15.8 156.64-12.4L156.64-12.4Q157.24-9.75 157.66-8.38 158.09-7 158.49-7L158.49-7Q158.89-7 159.64-9.63 160.39-12.25 161.59-17.3L161.59-17.3 161.94-18.7Q162.29-20.2 163.01-20.98 163.74-21.75 164.99-21.75L164.99-21.75Q166.19-21.75 166.94-21.03 167.69-20.3 168.19-18.7L168.19-18.7 169.24-15.3Q170.49-11.1 171.24-9.08 171.99-7.05 172.49-7.05L172.49-7.05Q172.84-7.05 173.16-8.38 173.49-9.7 174.04-12.85L174.04-12.85Q174.69-16.8 174.89-18.82 175.09-20.85 175.24-23.65L175.24-23.65Q175.39-26.05 178.29-26.05L178.29-26.05Q179.89-26.05 180.59-25.2 181.29-24.35 181.29-22.45L181.29-22.45Q181.29-20.25 180.69-16.2 180.09-12.15 179.19-8.75L179.19-8.75Q176.94-0.05 172.89-0.05L172.89-0.05Q170.29-0.05 168.31-3.68 166.34-7.3 165.09-14.05L165.09-14.05Q163.19-0.05 158.29-0.05L158.29-0.05ZM192.84-26.85Q191.04-26.85 189.89-27.98 188.74-29.1 188.74-30.85L188.74-30.85Q188.74-32.6 189.89-33.73 191.04-34.85 192.89-34.85L192.89-34.85Q194.64-34.85 195.79-33.73 196.94-32.6 196.94-30.9L196.94-30.9Q196.94-29.15 195.79-28 194.64-26.85 192.84-26.85L192.84-26.85ZM192.09-0.3Q190.74-0.3 189.86-0.98 188.99-1.65 189.04-2.8L189.04-2.8 189.44-22.2Q189.49-23.4 190.34-24.05 191.19-24.7 192.54-24.7L192.54-24.7Q193.94-24.7 194.81-24.03 195.69-23.35 195.64-22.1L195.64-22.1 195.24-2.8Q195.19-1.65 194.31-0.98 193.44-0.3 192.09-0.3L192.09-0.3ZM218.38-9.35Q219.78-9.35 220.41-8.75 221.03-8.15 221.03-6.85L221.03-6.85Q221.03-3.8 219.06-1.88 217.08 0.05 214.03 0.05L214.03 0.05Q209.88 0.05 208.01-3.38 206.13-6.8 206.13-14.25L206.13-14.25Q206.13-15.8 206.23-18.5L206.23-18.5 204.43-18.6Q202.03-18.7 202.03-20.95L202.03-20.95Q202.03-22.2 202.68-22.78 203.33-23.35 204.83-23.3L204.83-23.3 206.63-23.2Q206.98-26.75 207.78-31.35L207.78-31.35Q208.18-33.5 210.73-33.5L210.73-33.5Q212.28-33.5 213.11-32.7 213.93-31.9 213.73-30.8L213.73-30.8Q212.93-25.4 212.68-22.9L212.68-22.9 215.73-22.85Q217.93-22.8 217.93-20.6L217.93-20.6Q217.93-19.45 217.33-18.9 216.73-18.35 215.28-18.35L215.28-18.35 212.28-18.35Q212.18-15.75 212.18-14.25L212.18-14.25Q212.18-8.95 212.68-6.85 213.18-4.75 214.43-4.75L214.43-4.75Q215.23-4.75 215.58-5.33 215.93-5.9 215.98-7.25L215.98-7.25Q216.03-8.35 216.58-8.85 217.13-9.35 218.38-9.35L218.38-9.35ZM248.43-19Q249.63-14.2 249.63-2.45L249.63-2.45Q249.63-1.4 248.78-0.78 247.93-0.15 246.63-0.15L246.63-0.15Q245.28-0.15 244.41-0.83 243.53-1.5 243.53-2.75L243.53-2.75Q243.53-8.9 243.36-12.65 243.18-16.4 242.68-18.35L242.68-18.35Q241.93-21.15 239.38-21.15L239.38-21.15Q236.23-21.15 234.68-18.73 233.13-16.3 233.13-12.7L233.13-12.7 233.13-2.3Q233.13-1.4 232.23-0.78 231.33-0.15 230.08-0.15L230.08-0.15Q228.83-0.15 227.96-0.78 227.08-1.4 227.08-2.35L227.08-2.35Q227.08-12.2 227.33-21.6L227.33-21.6Q227.53-27.55 227.93-34.8L227.93-34.8 228.03-36.75Q228.13-37.9 228.93-38.6 229.73-39.3 231.08-39.3L231.08-39.3Q232.38-39.3 233.16-38.68 233.93-38.05 233.88-37L233.88-37 233.18-24.15 233.13-23.1Q234.33-24.4 236.16-25.2 237.98-26 240.38-26L240.38-26Q243.73-26 245.66-24.3 247.58-22.6 248.43-19L248.43-19Z" opacity="1" transform="matrix(1,0,0,1,0,0)" fill="#454545" class="wordmark-text-0" data-fill-palette-color="primary" id="text-0"></path></svg></g></svg></g><g transform="matrix(1,0,0,1,3.5,87.62693721622708)"><svg viewBox="0 0 388.52 38.35351124778237" height="38.35351124778237" width="388.52"><g transform="matrix(1,0,0,1,0,0)"><svg width="388.52" viewBox="-1.9500000000000002 -44.9 493.42 49.4" height="38.35351124778237" data-palette-color="#454545"><path d="M12.15 0.5L12.15 0.5Q8.85 0.5 6.68-0.88 4.5-2.25 3.4-4.73 2.3-7.2 2.05-10.5L2.05-10.5 5.4-11.5Q5.65-9 6.3-6.98 6.95-4.95 8.35-3.78 9.75-2.6 12.2-2.6L12.2-2.6Q14.9-2.6 16.4-4 17.9-5.4 17.9-8.45L17.9-8.45Q17.9-11.15 16.57-13.1 15.25-15.05 12.95-17.2L12.95-17.2 5.8-24.05Q3.9-25.9 3-27.88 2.1-29.85 2.1-32.2L2.1-32.2Q2.1-36.4 4.6-38.65 7.1-40.9 11.25-40.9L11.25-40.9Q13.4-40.9 15.13-40.35 16.85-39.8 18.07-38.58 19.3-37.35 20-35.4 20.7-33.45 20.95-30.65L20.95-30.65 17.7-29.8Q17.5-32.35 16.88-34.18 16.25-36 14.93-36.95 13.6-37.9 11.25-37.9L11.25-37.9Q8.75-37.9 7.15-36.6 5.55-35.3 5.55-32.55L5.55-32.55Q5.55-30.9 6.18-29.55 6.8-28.2 8.4-26.65L8.4-26.65 15.55-19.9Q17.95-17.65 19.7-14.9 21.45-12.15 21.45-8.7L21.45-8.7Q21.45-5.65 20.28-3.6 19.1-1.55 17-0.53 14.9 0.5 12.15 0.5ZM44.72 0L41.07 0 41.07-40.5 44.72-40.5 44.72-25.85Q46.17-27.4 47.92-28.38 49.67-29.35 51.77-29.35L51.77-29.35Q53.22-29.35 54.19-28.63 55.17-27.9 55.69-26.53 56.22-25.15 56.22-23.2L56.22-23.2 56.22 0 52.52 0 52.52-22.4Q52.52-24.65 51.84-25.58 51.17-26.5 49.77-26.5L49.77-26.5Q48.52-26.5 47.19-25.73 45.87-24.95 44.72-23.75L44.72-23.75 44.72 0ZM81.84 0.45L81.84 0.45Q80.09 0.45 78.79-0.43 77.49-1.3 76.76-2.78 76.04-4.25 76.04-6L76.04-6Q76.04-8.2 76.66-9.75 77.29-11.3 78.66-12.53 80.04-13.75 82.26-14.93 84.49-16.1 87.69-17.55L87.69-17.55 87.69-19.6Q87.69-22.25 87.36-23.78 87.04-25.3 86.26-25.95 85.49-26.6 84.09-26.6L84.09-26.6Q82.94-26.6 82.04-26.15 81.14-25.7 80.59-24.63 80.04-23.55 80.04-21.65L80.04-21.65 80.04-20.65 76.44-20.7Q76.49-25.1 78.31-27.23 80.14-29.35 84.29-29.35L84.29-29.35Q88.19-29.35 89.76-27.03 91.34-24.7 91.34-19.8L91.34-19.8 91.34-5.75Q91.34-5 91.39-3.83 91.44-2.65 91.49-1.6 91.54-0.55 91.59 0L91.59 0 88.34 0Q88.24-0.95 88.04-2.13 87.84-3.3 87.79-4L87.79-4Q87.19-2.25 85.66-0.9 84.14 0.45 81.84 0.45ZM82.99-2.65L82.99-2.65Q84.09-2.65 84.99-3.2 85.89-3.75 86.59-4.53 87.29-5.3 87.69-6.1L87.69-6.1 87.69-15.1Q85.54-14 84.01-13.1 82.49-12.2 81.54-11.35 80.59-10.5 80.14-9.43 79.69-8.35 79.69-6.9L79.69-6.9Q79.69-4.6 80.69-3.63 81.69-2.65 82.99-2.65ZM115.86 0L112.16 0 112.16-28.9 115.86-28.9 115.86-24.95Q117.26-27.25 119.06-28.23 120.86-29.2 122.51-29.2L122.51-29.2Q122.66-29.2 122.81-29.2 122.96-29.2 123.16-29.15L123.16-29.15 123.16-25.25Q122.81-25.4 122.31-25.48 121.81-25.55 121.36-25.55L121.36-25.55Q119.66-25.55 118.28-24.75 116.91-23.95 115.86-22.2L115.86-22.2 115.86 0ZM149.13 0.45L149.13 0.45Q146.43 0.45 144.7-0.63 142.98-1.7 142.15-4.2 141.33-6.7 141.33-10.85L141.33-10.85 141.33-18.15Q141.33-22.45 142.18-24.88 143.03-27.3 144.78-28.33 146.53-29.35 149.18-29.35L149.18-29.35Q152.23-29.35 153.83-28.05 155.43-26.75 156.05-24.13 156.68-21.5 156.68-17.4L156.68-17.4 156.68-14.8 144.98-14.8 144.98-9.75Q144.98-6.95 145.4-5.33 145.83-3.7 146.75-3 147.68-2.3 149.13-2.3L149.13-2.3Q150.23-2.3 151.13-2.73 152.03-3.15 152.55-4.38 153.08-5.6 153.08-7.85L153.08-7.85 153.08-9.85 156.63-9.85 156.63-8.25Q156.63-4.3 155-1.93 153.38 0.45 149.13 0.45ZM144.98-18.85L144.98-16.9 153.08-16.9 153.08-19.3Q153.08-21.6 152.83-23.23 152.58-24.85 151.75-25.73 150.93-26.6 149.13-26.6L149.13-26.6Q147.63-26.6 146.7-25.95 145.78-25.3 145.38-23.63 144.98-21.95 144.98-18.85L144.98-18.85ZM211.17 0L208.07 0 201.22-40.5 204.47-40.5 209.82-7.6 215.92-39.9 219.07-39.9 225.32-7.55 230.27-40.5 233.47-40.5 226.92 0 223.97 0 217.52-33.4 211.17 0ZM257.29 0L253.64 0 253.64-28.9 257.29-28.9 257.29 0ZM257.29-32.9L253.64-32.9 253.64-37.85 257.29-37.85 257.29-32.9ZM285.51 0.35L285.51 0.35Q283.41 0.35 282.28-0.48 281.16-1.3 280.73-2.73 280.31-4.15 280.31-6L280.31-6 280.31-26.5 276.76-26.5 276.76-28.9 280.31-28.9 280.31-37.85 283.96-37.85 283.96-28.9 288.76-28.9 288.76-26.5 283.96-26.5 283.96-6.35Q283.96-4.25 284.43-3.38 284.91-2.5 286.51-2.5L286.51-2.5Q286.96-2.5 287.53-2.58 288.11-2.65 288.61-2.75L288.61-2.75 288.61 0.05Q287.86 0.2 287.06 0.28 286.26 0.35 285.51 0.35ZM311.57 0L307.92 0 307.92-40.5 311.57-40.5 311.57-25.85Q313.02-27.4 314.77-28.38 316.52-29.35 318.62-29.35L318.62-29.35Q320.07-29.35 321.05-28.63 322.02-27.9 322.55-26.53 323.07-25.15 323.07-23.2L323.07-23.2 323.07 0 319.37 0 319.37-22.4Q319.37-24.65 318.7-25.58 318.02-26.5 316.62-26.5L316.62-26.5Q315.37-26.5 314.05-25.73 312.72-24.95 311.57-23.75L311.57-23.75 311.57 0ZM384.56 0L369.81 0 369.81-40.5 384.46-40.5 384.46-37.55 373.66-37.55 373.66-22.35 382.46-22.35 382.46-19.55 373.66-19.55 373.66-2.85 384.56-2.85 384.56 0ZM409.23 0.45L409.23 0.45Q407.48 0.45 406.18-0.43 404.88-1.3 404.16-2.78 403.43-4.25 403.43-6L403.43-6Q403.43-8.2 404.06-9.75 404.68-11.3 406.06-12.53 407.43-13.75 409.66-14.93 411.88-16.1 415.08-17.55L415.08-17.55 415.08-19.6Q415.08-22.25 414.76-23.78 414.43-25.3 413.66-25.95 412.88-26.6 411.48-26.6L411.48-26.6Q410.33-26.6 409.43-26.15 408.53-25.7 407.98-24.63 407.43-23.55 407.43-21.65L407.43-21.65 407.43-20.65 403.83-20.7Q403.88-25.1 405.71-27.23 407.53-29.35 411.68-29.35L411.68-29.35Q415.58-29.35 417.16-27.03 418.73-24.7 418.73-19.8L418.73-19.8 418.73-5.75Q418.73-5 418.78-3.83 418.83-2.65 418.88-1.6 418.93-0.55 418.98 0L418.98 0 415.73 0Q415.63-0.95 415.43-2.13 415.23-3.3 415.18-4L415.18-4Q414.58-2.25 413.06-0.9 411.53 0.45 409.23 0.45ZM410.38-2.65L410.38-2.65Q411.48-2.65 412.38-3.2 413.28-3.75 413.98-4.53 414.68-5.3 415.08-6.1L415.08-6.1 415.08-15.1Q412.93-14 411.41-13.1 409.88-12.2 408.93-11.35 407.98-10.5 407.53-9.43 407.08-8.35 407.08-6.9L407.08-6.9Q407.08-4.6 408.08-3.63 409.08-2.65 410.38-2.65ZM445.9 0.45L445.9 0.45Q442.45 0.45 440.4-1.78 438.35-4 438.05-7.75L438.05-7.75 441.1-8.7Q441.4-5.35 442.65-3.83 443.9-2.3 446.15-2.3L446.15-2.3Q448.05-2.3 449.08-3.38 450.1-4.45 450.1-6.4L450.1-6.4Q450.1-7.8 449.25-9.22 448.4-10.65 446.6-12.2L446.6-12.2 442.65-15.6Q440.7-17.25 439.7-18.9 438.7-20.55 438.7-22.85L438.7-22.85Q438.7-24.95 439.58-26.38 440.45-27.8 442-28.58 443.55-29.35 445.6-29.35L445.6-29.35Q448.9-29.35 450.6-27.23 452.3-25.1 452.45-21.75L452.45-21.75 449.85-20.9Q449.75-22.85 449.25-24.13 448.75-25.4 447.88-26 447-26.6 445.75-26.6L445.75-26.6Q444.1-26.6 443.08-25.68 442.05-24.75 442.05-23.1L442.05-23.1Q442.05-21.8 442.55-20.8 443.05-19.8 444.4-18.55L444.4-18.55 448.5-14.9Q449.7-13.85 450.8-12.65 451.9-11.45 452.6-9.98 453.3-8.5 453.3-6.5L453.3-6.5Q453.3-4.25 452.38-2.73 451.45-1.2 449.8-0.38 448.15 0.45 445.9 0.45ZM479.92 0.45L479.92 0.45Q477.22 0.45 475.5-0.63 473.77-1.7 472.95-4.2 472.12-6.7 472.12-10.85L472.12-10.85 472.12-18.15Q472.12-22.45 472.97-24.88 473.82-27.3 475.57-28.33 477.32-29.35 479.97-29.35L479.97-29.35Q483.02-29.35 484.62-28.05 486.22-26.75 486.85-24.13 487.47-21.5 487.47-17.4L487.47-17.4 487.47-14.8 475.77-14.8 475.77-9.75Q475.77-6.95 476.2-5.33 476.62-3.7 477.55-3 478.47-2.3 479.92-2.3L479.92-2.3Q481.02-2.3 481.92-2.73 482.82-3.15 483.35-4.38 483.87-5.6 483.87-7.85L483.87-7.85 483.87-9.85 487.42-9.85 487.42-8.25Q487.42-4.3 485.8-1.93 484.17 0.45 479.92 0.45ZM475.77-18.85L475.77-16.9 483.87-16.9 483.87-19.3Q483.87-21.6 483.62-23.23 483.37-24.85 482.55-25.73 481.72-26.6 479.92-26.6L479.92-26.6Q478.42-26.6 477.5-25.95 476.57-25.3 476.17-23.63 475.77-21.95 475.77-18.85L475.77-18.85Z" opacity="1" transform="matrix(1,0,0,1,0,0)" fill="#454545" class="slogan-text-1" data-fill-palette-color="secondary" id="text-1"></path></svg></g></svg></g></svg></g></svg></g></svg></g></svg></g></svg></g><g mask="url(#4a554804-9b9f-4412-9d6f-b6a6914f417d)"><g transform="matrix(2.622263573850086, 0, 0, 2.622263573850086, 91.92019763226284, 1)"><svg xmlns="http://www.w3.org/2000/svg" xmlns:xlink="http://www.w3.org/1999/xlink" version="1.1" x="0" y="0" viewBox="9.638 3.247 80.72399999999999 93.507" enable-background="new 0 0 100 100" xml:space="preserve" height="93.507" width="80.72399999999999" class="icon-none" data-fill-palette-color="accent" id="none"><g fill="#ffdc00" data-fill-palette-color="accent"><g fill="#ffdc00" data-fill-palette-color="accent"><polygon points="36.703,11.011 9.638,26.636 9.638,38.757 36.703,23.131 63.767,38.757 63.767,26.636   " fill="#ffdc00" data-fill-palette-color="accent"></polygon></g><g fill="#ffdc00" data-fill-palette-color="accent"><polygon points="63.298,89.092 36.233,73.467 36.233,61.348 63.298,76.973 90.362,61.348 90.362,73.467   " fill="#ffdc00" data-fill-palette-color="accent"></polygon></g><g fill="#ffdc00" data-fill-palette-color="accent"><polygon points="9.638,42.012 36.703,26.386 47.198,32.446 20.134,48.072 20.134,79.324 9.638,73.264   " fill="#ffdc00" data-fill-palette-color="accent"></polygon></g><g fill="#ffdc00" data-fill-palette-color="accent"><polygon points="77.083,18.872 50.018,3.247 39.522,9.307 66.586,24.932 66.586,56.184 77.083,50.124   " fill="#ffdc00" data-fill-palette-color="accent"></polygon></g><g fill="#ffdc00" data-fill-palette-color="accent"><polygon points="23.01,81.127 23.011,49.876 33.507,43.816 33.507,75.068 60.571,90.693 50.075,96.754   " fill="#ffdc00" data-fill-palette-color="accent"></polygon></g><g fill="#ffdc00" data-fill-palette-color="accent"><polygon points="90.362,58.092 90.362,26.84 79.866,20.78 79.866,52.031 52.802,67.658 63.298,73.719   " fill="#ffdc00" data-fill-palette-color="accent"></polygon></g></g></svg></g></g></svg></g><defs></defs></svg><rect width="395.52" height="247.2" fill="none" stroke="none" visibility="hidden"></rect></g></svg></g></svg>